<?xml version="1.0" standalone="no"?>
<!DOCTYPE svg PUBLIC "-//W3C//DTD SVG 20010904//EN"
  "http://www.w3.org/TR/2001/REC-SVG-20010904/DTD/svg10.dtd">
<svg version="1.0" xmlns="http://www.w3.org/2000/svg"
     width="13.000000pt" height="13.000000pt" viewBox="0 0 236.000000 235.000000"
     preserveAspectRatio="xMidYMid meet">
  <metadata>
    Created by potrace 1.16, written by Peter Selinger 2001-2019
  </metadata>
  <g transform="translate(0.000000,235.000000) scale(0.100000,-0.100000)"
     fill="#773366" stroke="none">
    <path d="M10 2045 c0 -32 165 -233 348 -424 224 -235 215 -222 208 -301 -10
-96 -30 -124 -248 -357 l-67 -72 3 -112 c4 -135 9 -141 117 -159 97 -17 148
-9 177 27 54 67 73 80 168 116 72 27 124 40 191 46 108 10 143 27 193 94 40
54 52 41 22 -25 -51 -117 -240 -284 -442 -393 -95 -51 -100 -72 -22 -98 160
-53 594 -40 802 23 100 31 148 27 211 -16 29 -20 77 -48 108 -63 50 -23 68
-26 171 -26 90 0 122 4 145 17 l30 17 -55 1 c-152 1 -264 60 -301 158 -9 23
-2 19 43 -25 29 -29 69 -59 88 -67 49 -20 123 -30 167 -21 33 6 35 8 18 17
-49 26 -85 73 -98 128 l-6 26 64 -4 c71 -5 81 4 36 29 -22 13 -33 32 -50 85
-12 38 -33 86 -47 107 -39 60 -10 43 63 -38 81 -90 142 -125 219 -125 29 0 55
4 59 10 3 5 -12 18 -34 29 -53 27 -93 78 -127 162 -33 85 -85 146 -148 178
-26 13 -45 25 -42 28 12 12 82 -23 127 -63 66 -58 158 -86 227 -68 30 9 28 18
-10 35 -44 19 -65 61 -79 155 -14 98 -26 120 -87 175 l-48 43 45 31 c43 28 90
90 78 101 -3 3 -34 -5 -69 -19 -64 -25 -106 -32 -188 -28 l-45 2 53 19 c29 9
70 31 90 47 47 37 102 118 102 149 l0 24 -53 -27 c-111 -58 -235 -26 -346 88
-34 34 -59 64 -57 66 2 2 16 -1 32 -8 54 -20 214 -13 214 10 0 5 -29 11 -64
13 -64 6 -74 10 -214 96 -56 34 -157 62 -223 62 -86 0 -154 -17 -249 -63 -47
-23 -89 -43 -95 -45 -5 -3 5 11 24 31 37 40 103 71 170 82 67 11 25 29 -48 21
-104 -12 -230 -90 -287 -179 l-29 -44 -52 39 c-58 44 -138 78 -183 78 -37 0
-39 -19 -10 -100 11 -30 20 -71 20 -90 0 -19 9 -46 20 -60 30 -39 25 -50 -23
-50 -31 0 -60 10 -109 39 -107 62 -174 116 -451 359 -115 100 -147 123 -147
107z"/>
  </g>
</svg>
